<?xml version="1.0" encoding="UTF-8" standalone="no"?>
<!-- Created with Inkscape (http://www.inkscape.org/) -->

<svg
   width="12in"
   height="12in"
   viewBox="0 0 304.8 304.80001"
   version="1.1"
   id="svg5"
   inkscape:version="1.3.2 (091e20e, 2023-11-25, custom)"
   sodipodi:docname="Elite Indicators.svg"
   xmlns:inkscape="http://www.inkscape.org/namespaces/inkscape"
   xmlns:sodipodi="http://sodipodi.sourceforge.net/DTD/sodipodi-0.dtd"
   xmlns="http://www.w3.org/2000/svg"
   xmlns:svg="http://www.w3.org/2000/svg">
  <sodipodi:namedview
     id="namedview7"
     pagecolor="#505050"
     bordercolor="#eeeeee"
     borderopacity="1"
     inkscape:pageshadow="0"
     inkscape:pageopacity="0"
     inkscape:pagecheckerboard="0"
     inkscape:document-units="in"
     showgrid="false"
     units="in"
     inkscape:zoom="2.8284271"
     inkscape:cx="116.14229"
     inkscape:cy="45.785164"
     inkscape:window-width="2560"
     inkscape:window-height="1377"
     inkscape:window-x="1912"
     inkscape:window-y="-8"
     inkscape:window-maximized="1"
     inkscape:current-layer="layer1"
     inkscape:showpageshadow="0"
     inkscape:deskcolor="#d1d1d1" />
  <defs
     id="defs2" />
  <g
     inkscape:label="Layer 1"
     inkscape:groupmode="layer"
     id="layer1">
    <path
       sodipodi:type="star"
       style="fill:none;stroke:#ffffff;stroke-width:7.22122;stroke-linecap:round;stroke-linejoin:round;stroke-dasharray:none;stroke-dashoffset:1.27;stroke-opacity:1"
       id="path1"
       inkscape:flatsided="false"
       sodipodi:sides="5"
       sodipodi:cx="86.646172"
       sodipodi:cy="78.161537"
       sodipodi:r1="34.196644"
       sodipodi:r2="13.952227"
       sodipodi:arg1="-1.7445974"
       sodipodi:arg2="-1.1162789"
       inkscape:rounded="0"
       inkscape:randomized="0"
       d="M 80.732635,44.48008 92.771601,65.625838 116.85176,62.129287 100.46119,80.113422 111.22779,101.93452 89.058894,91.903567 71.63286,108.8863 74.322296,84.702694 52.785819,73.377502 76.616875,68.462164 Z"
       inkscape:transform-center-x="0.00087176419"
       inkscape:transform-center-y="-0.28632148"
       transform="matrix(0.08662476,0.0151251,-0.0151251,0.08662476,-3.1452746,-4.7567278)"
       inkscape:export-filename="Elite Indicators.png"
       inkscape:export-xdpi="256"
       inkscape:export-ydpi="256" />
    <path
       sodipodi:type="star"
       style="fill:none;stroke:#ffffff;stroke-width:7.22122;stroke-linecap:round;stroke-linejoin:round;stroke-dasharray:none;stroke-dashoffset:1.27;stroke-opacity:1"
       id="path2"
       inkscape:flatsided="false"
       sodipodi:sides="5"
       sodipodi:cx="86.646172"
       sodipodi:cy="78.161537"
       sodipodi:r1="34.196644"
       sodipodi:r2="13.952227"
       sodipodi:arg1="-1.7445974"
       sodipodi:arg2="-1.1162789"
       inkscape:rounded="0"
       inkscape:randomized="0"
       d="M 80.732635,44.48008 92.771601,65.625838 116.85176,62.129287 100.46119,80.113422 111.22779,101.93452 89.058894,91.903567 71.63286,108.8863 74.322296,84.702694 52.785819,73.377502 76.616875,68.462164 Z"
       inkscape:transform-center-x="0.00087176419"
       inkscape:transform-center-y="-0.28632148"
       transform="matrix(0.08662476,0.0151251,-0.0151251,0.08662476,18.698726,-4.7567278)" />
    <path
       sodipodi:type="star"
       style="fill:none;stroke:#ffffff;stroke-width:7.22122;stroke-linecap:round;stroke-linejoin:round;stroke-dasharray:none;stroke-dashoffset:1.27;stroke-opacity:1"
       id="path3"
       inkscape:flatsided="false"
       sodipodi:sides="5"
       sodipodi:cx="86.646172"
       sodipodi:cy="78.161537"
       sodipodi:r1="34.196644"
       sodipodi:r2="13.952227"
       sodipodi:arg1="-1.7445974"
       sodipodi:arg2="-1.1162789"
       inkscape:rounded="0"
       inkscape:randomized="0"
       d="M 80.732635,44.48008 92.771601,65.625838 116.85176,62.129287 100.46119,80.113422 111.22779,101.93452 89.058894,91.903567 71.63286,108.8863 74.322296,84.702694 52.785819,73.377502 76.616875,68.462164 Z"
       inkscape:transform-center-x="0.00087176419"
       inkscape:transform-center-y="-0.28632148"
       transform="matrix(0.08662476,0.0151251,-0.0151251,0.08662476,25.302726,-4.7567278)" />
    <path
       sodipodi:type="star"
       style="fill:none;stroke:#ffffff;stroke-width:7.22122;stroke-linecap:round;stroke-linejoin:round;stroke-dasharray:none;stroke-dashoffset:1.27;stroke-opacity:1"
       id="path4"
       inkscape:flatsided="false"
       sodipodi:sides="5"
       sodipodi:cx="86.646172"
       sodipodi:cy="78.161537"
       sodipodi:r1="34.196644"
       sodipodi:r2="13.952227"
       sodipodi:arg1="-1.7445974"
       sodipodi:arg2="-1.1162789"
       inkscape:rounded="0"
       inkscape:randomized="0"
       d="M 80.732635,44.48008 92.771601,65.625838 116.85176,62.129287 100.46119,80.113422 111.22779,101.93452 89.058894,91.903567 71.63286,108.8863 74.322296,84.702694 52.785819,73.377502 76.616875,68.462164 Z"
       inkscape:transform-center-x="0.00087176419"
       inkscape:transform-center-y="-0.28632148"
       transform="matrix(0.08662476,0.0151251,-0.0151251,0.08662476,4.4747255,-4.7567278)" />
    <path
       sodipodi:type="star"
       style="fill:none;stroke:#ffffff;stroke-width:7.22122;stroke-linecap:round;stroke-linejoin:round;stroke-dasharray:none;stroke-dashoffset:1.27;stroke-opacity:1"
       id="path5"
       inkscape:flatsided="false"
       sodipodi:sides="5"
       sodipodi:cx="86.646172"
       sodipodi:cy="78.161537"
       sodipodi:r1="34.196644"
       sodipodi:r2="13.952227"
       sodipodi:arg1="-1.7445974"
       sodipodi:arg2="-1.1162789"
       inkscape:rounded="0"
       inkscape:randomized="0"
       d="M 80.732635,44.48008 92.771601,65.625838 116.85176,62.129287 100.46119,80.113422 111.22779,101.93452 89.058894,91.903567 71.63286,108.8863 74.322296,84.702694 52.785819,73.377502 76.616875,68.462164 Z"
       inkscape:transform-center-x="0.00087176419"
       inkscape:transform-center-y="-0.28632148"
       transform="matrix(0.08662476,0.0151251,-0.0151251,0.08662476,11.078726,-4.7567278)" />
    <path
       sodipodi:type="star"
       style="fill:none;stroke:#ffffff;stroke-width:7.22122;stroke-linecap:round;stroke-linejoin:round;stroke-dasharray:none;stroke-dashoffset:1.27;stroke-opacity:1"
       id="path6"
       inkscape:flatsided="false"
       sodipodi:sides="5"
       sodipodi:cx="86.646172"
       sodipodi:cy="78.161537"
       sodipodi:r1="34.196644"
       sodipodi:r2="13.952227"
       sodipodi:arg1="-1.7445974"
       sodipodi:arg2="-1.1162789"
       inkscape:rounded="0"
       inkscape:randomized="0"
       d="M 80.732635,44.48008 92.771601,65.625838 116.85176,62.129287 100.46119,80.113422 111.22779,101.93452 89.058894,91.903567 71.63286,108.8863 74.322296,84.702694 52.785819,73.377502 76.616875,68.462164 Z"
       inkscape:transform-center-x="0.00087176419"
       inkscape:transform-center-y="-0.28632148"
       transform="matrix(0.08662476,0.0151251,-0.0151251,0.08662476,22.000726,0.9582723)" />
    <path
       sodipodi:type="star"
       style="fill:none;stroke:#ffffff;stroke-width:7.22122;stroke-linecap:round;stroke-linejoin:round;stroke-dasharray:none;stroke-dashoffset:1.27;stroke-opacity:1"
       id="path7"
       inkscape:flatsided="false"
       sodipodi:sides="5"
       sodipodi:cx="86.646172"
       sodipodi:cy="78.161537"
       sodipodi:r1="34.196644"
       sodipodi:r2="13.952227"
       sodipodi:arg1="-1.7445974"
       sodipodi:arg2="-1.1162789"
       inkscape:rounded="0"
       inkscape:randomized="0"
       d="M 80.732635,44.48008 92.771601,65.625838 116.85176,62.129287 100.46119,80.113422 111.22779,101.93452 89.058894,91.903567 71.63286,108.8863 74.322296,84.702694 52.785819,73.377502 76.616875,68.462164 Z"
       inkscape:transform-center-x="0.00087176419"
       inkscape:transform-center-y="-0.28632148"
       transform="matrix(0.08662476,0.0151251,-0.0151251,0.08662476,32.922726,-4.7567278)" />
    <path
       sodipodi:type="star"
       style="fill:none;stroke:#ffffff;stroke-width:7.22122;stroke-linecap:round;stroke-linejoin:round;stroke-dasharray:none;stroke-dashoffset:1.27;stroke-opacity:1"
       id="path8"
       inkscape:flatsided="false"
       sodipodi:sides="5"
       sodipodi:cx="86.646172"
       sodipodi:cy="78.161537"
       sodipodi:r1="34.196644"
       sodipodi:r2="13.952227"
       sodipodi:arg1="-1.7445974"
       sodipodi:arg2="-1.1162789"
       inkscape:rounded="0"
       inkscape:randomized="0"
       d="M 80.732635,44.48008 92.771601,65.625838 116.85176,62.129287 100.46119,80.113422 111.22779,101.93452 89.058894,91.903567 71.63286,108.8863 74.322296,84.702694 52.785819,73.377502 76.616875,68.462164 Z"
       inkscape:transform-center-x="0.00087176419"
       inkscape:transform-center-y="-0.28632148"
       transform="matrix(0.08662476,0.0151251,-0.0151251,0.08662476,39.526726,-4.7567278)" />
    <path
       sodipodi:type="star"
       style="fill:none;stroke:#ffffff;stroke-width:7.22122;stroke-linecap:round;stroke-linejoin:round;stroke-dasharray:none;stroke-dashoffset:1.27;stroke-opacity:1"
       id="path9"
       inkscape:flatsided="false"
       sodipodi:sides="5"
       sodipodi:cx="86.646172"
       sodipodi:cy="78.161537"
       sodipodi:r1="34.196644"
       sodipodi:r2="13.952227"
       sodipodi:arg1="-1.7445974"
       sodipodi:arg2="-1.1162789"
       inkscape:rounded="0"
       inkscape:randomized="0"
       d="M 80.732635,44.48008 92.771601,65.625838 116.85176,62.129287 100.46119,80.113422 111.22779,101.93452 89.058894,91.903567 71.63286,108.8863 74.322296,84.702694 52.785819,73.377502 76.616875,68.462164 Z"
       inkscape:transform-center-x="0.00087176419"
       inkscape:transform-center-y="-0.28632148"
       transform="matrix(0.08662476,0.0151251,-0.0151251,0.08662476,32.922726,0.9582723)" />
    <path
       sodipodi:type="star"
       style="fill:none;stroke:#ffffff;stroke-width:7.22122;stroke-linecap:round;stroke-linejoin:round;stroke-dasharray:none;stroke-dashoffset:1.27;stroke-opacity:1"
       id="path10"
       inkscape:flatsided="false"
       sodipodi:sides="5"
       sodipodi:cx="86.646172"
       sodipodi:cy="78.161537"
       sodipodi:r1="34.196644"
       sodipodi:r2="13.952227"
       sodipodi:arg1="-1.7445974"
       sodipodi:arg2="-1.1162789"
       inkscape:rounded="0"
       inkscape:randomized="0"
       d="M 80.732635,44.48008 92.771601,65.625838 116.85176,62.129287 100.46119,80.113422 111.22779,101.93452 89.058894,91.903567 71.63286,108.8863 74.322296,84.702694 52.785819,73.377502 76.616875,68.462164 Z"
       inkscape:transform-center-x="0.00087176419"
       inkscape:transform-center-y="-0.28632148"
       transform="matrix(0.08662476,0.0151251,-0.0151251,0.08662476,39.526726,0.9582723)" />
    <path
       sodipodi:type="star"
       style="fill:none;stroke:#ffffff;stroke-width:7.22122;stroke-linecap:round;stroke-linejoin:round;stroke-dasharray:none;stroke-dashoffset:1.27;stroke-opacity:1"
       id="path15"
       inkscape:flatsided="false"
       sodipodi:sides="5"
       sodipodi:cx="86.646172"
       sodipodi:cy="78.161537"
       sodipodi:r1="34.196644"
       sodipodi:r2="13.952227"
       sodipodi:arg1="-1.7445974"
       sodipodi:arg2="-1.1162789"
       inkscape:rounded="0"
       inkscape:randomized="0"
       d="M 80.732635,44.48008 92.771601,65.625838 116.85176,62.129287 100.46119,80.113422 111.22779,101.93452 89.058894,91.903567 71.63286,108.8863 74.322296,84.702694 52.785819,73.377502 76.616875,68.462164 Z"
       inkscape:transform-center-x="0.00087176419"
       inkscape:transform-center-y="-0.28632148"
       transform="matrix(0.08662476,0.0151251,-0.0151251,0.08662476,47.146726,-4.7567278)" />
    <path
       sodipodi:type="star"
       style="fill:none;stroke:#ffffff;stroke-width:7.22122;stroke-linecap:round;stroke-linejoin:round;stroke-dasharray:none;stroke-dashoffset:1.27;stroke-opacity:1"
       id="path16"
       inkscape:flatsided="false"
       sodipodi:sides="5"
       sodipodi:cx="86.646172"
       sodipodi:cy="78.161537"
       sodipodi:r1="34.196644"
       sodipodi:r2="13.952227"
       sodipodi:arg1="-1.7445974"
       sodipodi:arg2="-1.1162789"
       inkscape:rounded="0"
       inkscape:randomized="0"
       d="M 80.732635,44.48008 92.771601,65.625838 116.85176,62.129287 100.46119,80.113422 111.22779,101.93452 89.058894,91.903567 71.63286,108.8863 74.322296,84.702694 52.785819,73.377502 76.616875,68.462164 Z"
       inkscape:transform-center-x="0.00087176419"
       inkscape:transform-center-y="-0.28632148"
       transform="matrix(0.08662476,0.0151251,-0.0151251,0.08662476,53.750726,-4.7567278)" />
    <path
       sodipodi:type="star"
       style="fill:none;stroke:#ffffff;stroke-width:7.22122;stroke-linecap:round;stroke-linejoin:round;stroke-dasharray:none;stroke-dashoffset:1.27;stroke-opacity:1"
       id="path17"
       inkscape:flatsided="false"
       sodipodi:sides="5"
       sodipodi:cx="86.646172"
       sodipodi:cy="78.161537"
       sodipodi:r1="34.196644"
       sodipodi:r2="13.952227"
       sodipodi:arg1="-1.7445974"
       sodipodi:arg2="-1.1162789"
       inkscape:rounded="0"
       inkscape:randomized="0"
       d="M 80.732635,44.48008 92.771601,65.625838 116.85176,62.129287 100.46119,80.113422 111.22779,101.93452 89.058894,91.903567 71.63286,108.8863 74.322296,84.702694 52.785819,73.377502 76.616875,68.462164 Z"
       inkscape:transform-center-x="0.00087176419"
       inkscape:transform-center-y="-0.28632148"
       transform="matrix(0.08662476,0.0151251,-0.0151251,0.08662476,50.448726,-0.31172772)" />
    <path
       sodipodi:type="star"
       style="fill:none;stroke:#ffffff;stroke-width:7.22122;stroke-linecap:round;stroke-linejoin:round;stroke-dasharray:none;stroke-dashoffset:1.27;stroke-opacity:1"
       id="path18"
       inkscape:flatsided="false"
       sodipodi:sides="5"
       sodipodi:cx="86.646172"
       sodipodi:cy="78.161537"
       sodipodi:r1="34.196644"
       sodipodi:r2="13.952227"
       sodipodi:arg1="-1.7445974"
       sodipodi:arg2="-1.1162789"
       inkscape:rounded="0"
       inkscape:randomized="0"
       d="M 80.732635,44.48008 92.771601,65.625838 116.85176,62.129287 100.46119,80.113422 111.22779,101.93452 89.058894,91.903567 71.63286,108.8863 74.322296,84.702694 52.785819,73.377502 76.616875,68.462164 Z"
       inkscape:transform-center-x="0.00087176419"
       inkscape:transform-center-y="-0.28632148"
       transform="matrix(0.08662476,0.0151251,-0.0151251,0.08662476,47.146726,4.1332724)" />
    <path
       sodipodi:type="star"
       style="fill:none;stroke:#ffffff;stroke-width:7.22122;stroke-linecap:round;stroke-linejoin:round;stroke-dasharray:none;stroke-dashoffset:1.27;stroke-opacity:1"
       id="path19"
       inkscape:flatsided="false"
       sodipodi:sides="5"
       sodipodi:cx="86.646172"
       sodipodi:cy="78.161537"
       sodipodi:r1="34.196644"
       sodipodi:r2="13.952227"
       sodipodi:arg1="-1.7445974"
       sodipodi:arg2="-1.1162789"
       inkscape:rounded="0"
       inkscape:randomized="0"
       d="M 80.732635,44.48008 92.771601,65.625838 116.85176,62.129287 100.46119,80.113422 111.22779,101.93452 89.058894,91.903567 71.63286,108.8863 74.322296,84.702694 52.785819,73.377502 76.616875,68.462164 Z"
       inkscape:transform-center-x="0.00087176419"
       inkscape:transform-center-y="-0.28632148"
       transform="matrix(0.08662476,0.0151251,-0.0151251,0.08662476,53.750726,4.1332724)"
       inkscape:export-filename="Elite Indicators.png"
       inkscape:export-xdpi="256"
       inkscape:export-ydpi="256" />
  </g>
</svg>
